<svg width="16" height="14" viewBox="0 0 16 14" fill="none" xmlns="http://www.w3.org/2000/svg">
<path d="M4 5.16129C3.56 5.16129 3.18333 5.02967 2.87 4.76641C2.55667 4.50315 2.4 4.18669 2.4 3.81701C2.4 3.44733 2.55667 3.13086 2.87 2.86761C3.18333 2.60435 3.56 2.47273 4 2.47273C4.44 2.47273 4.81667 2.60435 5.13 2.86761C5.44333 3.13086 5.6 3.44733 5.6 3.81701C5.6 4.18669 5.44333 4.50315 5.13 4.76641C4.81667 5.02967 4.44 5.16129 4 5.16129ZM2.4 13.8991C2.17333 13.8991 1.98333 13.8347 1.83 13.7059C1.67667 13.5771 1.6 13.4174 1.6 13.227C1.16 13.227 0.783333 13.0954 0.47 12.8321C0.156667 12.5689 0 12.2524 0 11.8827V7.84986H2.4V7.34576C2.4 6.92007 2.57333 6.56159 2.92 6.27033C3.26667 5.97907 3.69333 5.83344 4.2 5.83344C4.46667 5.83344 4.71333 5.87825 4.94 5.96786C5.16667 6.05748 5.37333 6.18071 5.56 6.33754L6.68 7.37936C6.78667 7.46898 6.89 7.553 6.99 7.63142C7.09 7.70983 7.2 7.78265 7.32 7.84986H12.8V2.3719C12.8 2.21507 12.7333 2.08064 12.6 1.96862C12.4667 1.85659 12.3067 1.80058 12.12 1.80058C12.04 1.80058 11.9633 1.81459 11.89 1.84259C11.8167 1.8706 11.7467 1.91261 11.68 1.96862L10.68 2.8088C10.7467 2.99924 10.76 3.18688 10.72 3.37172C10.68 3.55655 10.6 3.72739 10.48 3.88422L8.28 2.00223C8.46667 1.9014 8.66667 1.83699 8.88 1.80898C9.09333 1.78098 9.30667 1.80058 9.52 1.8678L10.52 1.02762C10.7333 0.848382 10.9767 0.708352 11.25 0.607531C11.5233 0.506709 11.8133 0.456299 12.12 0.456299C12.76 0.456299 13.3 0.641138 13.74 1.01082C14.18 1.38049 14.4 1.83419 14.4 2.3719V7.84986H16V11.8827C16 12.2524 15.8433 12.5689 15.53 12.8321C15.2167 13.0954 14.84 13.227 14.4 13.227C14.4 13.4174 14.3233 13.5771 14.17 13.7059C14.0167 13.8347 13.8267 13.8991 13.6 13.8991H2.4Z" fill="#595959"/>
</svg>
