<svg width="19" height="14" viewBox="0 0 19 14" fill="none" xmlns="http://www.w3.org/2000/svg">
<path d="M3.5625 13.8991H2.375L1.60312 11.9787H0V7.15372C0 6.6256 0.232552 6.17751 0.697656 5.80943C1.16276 5.44135 1.72187 5.25731 2.375 5.25731V2.3767C2.375 1.84859 2.60755 1.3965 3.07266 1.02042C3.53776 0.644339 4.09687 0.456299 4.75 0.456299H14.25C14.9031 0.456299 15.4622 0.644339 15.9273 1.02042C16.3924 1.3965 16.625 1.84859 16.625 2.3767V5.25731C17.2781 5.25731 17.8372 5.44535 18.3023 5.82143C18.7674 6.19751 19 6.64961 19 7.17772V11.9787H17.3969L16.625 13.8991H15.4375L14.6656 11.9787H4.33437L3.5625 13.8991ZM10.6875 5.25731H14.25V2.3767H10.6875V5.25731ZM4.75 5.25731H8.3125V2.3767H4.75V5.25731Z" fill="#595959"/>
</svg>
