<svg width="18" height="14" viewBox="0 0 18 14" fill="none" xmlns="http://www.w3.org/2000/svg">
<path d="M4.75312 2.79765L3.83555 5.03612H14.1645L13.2469 2.79765C13.0887 2.41357 12.6633 2.15551 12.1852 2.15551H5.81484C5.33672 2.15551 4.91133 2.41357 4.75312 2.79765ZM1.39219 5.18015L2.62969 2.16452C3.1043 1.00927 4.38047 0.235107 5.81484 0.235107H12.1852C13.6195 0.235107 14.8957 1.00927 15.3703 2.16452L16.6078 5.18015C17.4234 5.46821 18 6.15536 18 6.95653V11.2774V12.7177C18 13.2489 17.4973 13.678 16.875 13.678H15.75C15.1277 13.678 14.625 13.2489 14.625 12.7177V11.2774H3.375V12.7177C3.375 13.2489 2.87227 13.678 2.25 13.678H1.125C0.502734 13.678 0 13.2489 0 12.7177V11.2774V6.95653C0 6.15536 0.576562 5.46821 1.39219 5.18015ZM4.5 7.91673C4.5 7.66207 4.38147 7.41784 4.1705 7.23777C3.95952 7.05769 3.67337 6.95653 3.375 6.95653C3.07663 6.95653 2.79048 7.05769 2.5795 7.23777C2.36853 7.41784 2.25 7.66207 2.25 7.91673C2.25 8.17139 2.36853 8.41562 2.5795 8.5957C2.79048 8.77577 3.07663 8.87693 3.375 8.87693C3.67337 8.87693 3.95952 8.77577 4.1705 8.5957C4.38147 8.41562 4.5 8.17139 4.5 7.91673ZM14.625 8.87693C14.9234 8.87693 15.2095 8.77577 15.4205 8.5957C15.6315 8.41562 15.75 8.17139 15.75 7.91673C15.75 7.66207 15.6315 7.41784 15.4205 7.23777C15.2095 7.05769 14.9234 6.95653 14.625 6.95653C14.3266 6.95653 14.0405 7.05769 13.8295 7.23777C13.6185 7.41784 13.5 7.66207 13.5 7.91673C13.5 8.17139 13.6185 8.41562 13.8295 8.5957C14.0405 8.77577 14.3266 8.87693 14.625 8.87693Z" fill="#595959"/>
</svg>
