<svg width="18" height="25" viewBox="0 0 18 25" fill="none" xmlns="http://www.w3.org/2000/svg">
<path d="M9.00203 12.2462C9.59533 12.2462 10.1025 12.0253 10.5237 11.5834C10.9448 11.1416 11.1554 10.6105 11.1554 9.99011C11.1554 9.36968 10.9442 8.83928 10.5217 8.39888C10.0992 7.95849 9.59127 7.73829 8.99797 7.73829C8.40467 7.73829 7.89745 7.9592 7.47631 8.401C7.05517 8.84281 6.8446 9.37392 6.8446 9.99434C6.8446 10.6148 7.05585 11.1452 7.47834 11.5856C7.90083 12.026 8.40873 12.2462 9.00203 12.2462ZM9 24.2712C5.99924 21.5521 3.74905 19.0216 2.24942 16.6797C0.749806 14.3379 0 12.1878 0 10.2296C0 7.35224 0.890068 5.02277 2.6702 3.24118C4.45032 1.4596 6.56025 0.568802 9 0.568802C11.4397 0.568802 13.5497 1.4596 15.3298 3.24118C17.1099 5.02277 18 7.35224 18 10.2296C18 12.1878 17.2502 14.3379 15.7506 16.6797C14.2509 19.0216 12.0008 21.5521 9 24.2712Z" fill="#595959"/>
</svg>
