<svg width="20" height="17" viewBox="0 0 20 17" fill="none" xmlns="http://www.w3.org/2000/svg">
<path d="M2 16.5908C1.45 16.5908 0.979167 16.3974 0.5875 16.0106C0.195833 15.6238 0 15.1588 0 14.6156V2.76438C0 2.2212 0.195833 1.75621 0.5875 1.3694C0.979167 0.98259 1.45 0.789185 2 0.789185H18C18.55 0.789185 19.0208 0.98259 19.4125 1.3694C19.8042 1.75621 20 2.2212 20 2.76438V14.6156C20 15.1588 19.8042 15.6238 19.4125 16.0106C19.0208 16.3974 18.55 16.5908 18 16.5908H2ZM10 9.67758L2 4.73958V14.6156H18V4.73958L10 9.67758ZM10 7.70238L18 2.76438H2L10 7.70238ZM2 4.73958V2.76438V14.6156V4.73958Z" fill="white"/>
</svg>
