<svg width="20" height="21" viewBox="0 0 20 21" fill="none" xmlns="http://www.w3.org/2000/svg">
<path d="M10 0.813995C7.28625 0.813995 6.945 0.82634 5.87875 0.873251C4.8125 0.922631 4.08625 1.08805 3.45 1.33249C2.78262 1.5804 2.17811 1.96927 1.67875 2.47193C1.1701 2.96535 0.776384 3.56229 0.525 4.22122C0.2775 4.84834 0.10875 5.56682 0.06 6.61615C0.0125 7.67164 0 8.00743 0 10.6912C0 13.3726 0.0125 13.7083 0.06 14.7614C0.11 15.8132 0.2775 16.5304 0.525 17.1588C0.78125 17.8081 1.1225 18.3587 1.67875 18.9081C2.23375 19.4574 2.79125 19.7957 3.44875 20.0475C4.08625 20.2919 4.81125 20.4586 5.87625 20.5067C6.94375 20.5536 7.28375 20.566 10 20.566C12.7163 20.566 13.055 20.5536 14.1225 20.5067C15.1863 20.4574 15.915 20.2919 16.5513 20.0475C17.2182 19.7995 17.8223 19.4106 18.3212 18.9081C18.8775 18.3587 19.2188 17.8081 19.475 17.1588C19.7213 16.5304 19.89 15.8132 19.94 14.7614C19.9875 13.7083 20 13.3726 20 10.69C20 8.00743 19.9875 7.67164 19.94 6.61738C19.89 5.56682 19.7213 4.84834 19.475 4.22122C19.2237 3.56227 18.8299 2.96533 18.3212 2.47193C17.822 1.96909 17.2175 1.58018 16.55 1.33249C15.9125 1.08805 15.185 0.921397 14.1213 0.873251C13.0538 0.82634 12.715 0.813995 9.9975 0.813995H10.0013H10ZM9.10375 2.59414H10.0013C12.6713 2.59414 12.9875 2.60279 14.0413 2.65093C15.0162 2.69414 15.5462 2.85586 15.8988 2.99042C16.365 3.16942 16.6987 3.38422 17.0487 3.72988C17.3988 4.07554 17.615 4.40392 17.7963 4.86562C17.9338 5.21252 18.0963 5.73595 18.14 6.69886C18.1887 7.73954 18.1987 8.05187 18.1987 10.6875C18.1987 13.3232 18.1887 13.6367 18.14 14.6774C18.0963 15.6403 17.9325 16.1625 17.7963 16.5107C17.6359 16.9395 17.38 17.3272 17.0475 17.6452C16.6975 17.9908 16.365 18.2044 15.8975 18.3834C15.5475 18.5192 15.0175 18.6797 14.0413 18.7241C12.9875 18.771 12.6713 18.7821 10.0013 18.7821C7.33125 18.7821 7.01375 18.771 5.96 18.7241C4.985 18.6797 4.45625 18.5192 4.10375 18.3834C3.66937 18.2253 3.27641 17.973 2.95375 17.6452C2.62094 17.3267 2.36465 16.9386 2.20375 16.5094C2.0675 16.1625 1.90375 15.6391 1.86 14.6762C1.8125 13.6355 1.8025 13.3232 1.8025 10.6851C1.8025 8.04817 1.8125 7.73707 1.86 6.69639C1.905 5.73348 2.0675 5.21005 2.205 4.86192C2.38625 4.40145 2.60375 4.07184 2.95375 3.72618C3.30375 3.38052 3.63625 3.16695 4.10375 2.98795C4.45625 2.85215 4.985 2.69167 5.96 2.64723C6.8825 2.60526 7.24 2.59291 9.10375 2.59168V2.59414ZM15.3387 4.23356C15.1812 4.23356 15.0251 4.26421 14.8795 4.32377C14.7339 4.38333 14.6017 4.47063 14.4902 4.58067C14.3788 4.69072 14.2904 4.82137 14.2301 4.96515C14.1698 5.10894 14.1388 5.26305 14.1388 5.41868C14.1388 5.57431 14.1698 5.72842 14.2301 5.87221C14.2904 6.01599 14.3788 6.14664 14.4902 6.25669C14.6017 6.36674 14.7339 6.45403 14.8795 6.51359C15.0251 6.57315 15.1812 6.6038 15.3387 6.6038C15.657 6.6038 15.9622 6.47894 16.1873 6.25669C16.4123 6.03443 16.5387 5.73299 16.5387 5.41868C16.5387 5.10437 16.4123 4.80293 16.1873 4.58067C15.9622 4.35842 15.657 4.23356 15.3387 4.23356ZM10.0013 5.61867C9.32009 5.60817 8.64362 5.73161 8.01122 5.98179C7.37883 6.23197 6.80314 6.60389 6.31769 7.0759C5.83223 7.54792 5.4467 8.11059 5.18355 8.73116C4.9204 9.35174 4.78488 10.0178 4.78488 10.6906C4.78488 11.3634 4.9204 12.0295 5.18355 12.6501C5.4467 13.2706 5.83223 13.8333 6.31769 14.3053C6.80314 14.7773 7.37883 15.1493 8.01122 15.3994C8.64362 15.6496 9.32009 15.7731 10.0013 15.7626C11.3494 15.7418 12.6353 15.1983 13.5812 14.2494C14.5272 13.3005 15.0574 12.0222 15.0574 10.6906C15.0574 9.35899 14.5272 8.08077 13.5812 7.13186C12.6353 6.18294 11.3494 5.63944 10.0013 5.61867ZM10.0013 7.39758C10.8854 7.39758 11.7334 7.74446 12.3586 8.36191C12.9838 8.97936 13.335 9.81679 13.335 10.69C13.335 11.5632 12.9838 12.4006 12.3586 13.0181C11.7334 13.6355 10.8854 13.9824 10.0013 13.9824C9.11709 13.9824 8.26913 13.6355 7.64393 13.0181C7.01873 12.4006 6.6675 11.5632 6.6675 10.69C6.6675 9.81679 7.01873 8.97936 7.64393 8.36191C8.26913 7.74446 9.11709 7.39758 10.0013 7.39758Z" fill="white"/>
</svg>
