<svg width="20" height="21" viewBox="0 0 20 21" fill="none" xmlns="http://www.w3.org/2000/svg">
<path d="M18.8333 20.566C16.5185 20.566 14.2315 20.0676 11.9722 19.0709C9.71296 18.0741 7.65741 16.6613 5.80556 14.8324C3.9537 13.0035 2.52315 10.9735 1.51389 8.74223C0.50463 6.51098 0 4.25231 0 1.9662C0 1.637 0.111111 1.36266 0.333333 1.1432C0.555556 0.923729 0.833333 0.813995 1.16667 0.813995H5.66667C5.92593 0.813995 6.15741 0.900868 6.36111 1.07461C6.56482 1.24836 6.68519 1.45411 6.72222 1.69186L7.44444 5.53253C7.48148 5.82515 7.47222 6.07205 7.41667 6.27323C7.36111 6.47441 7.25926 6.64815 7.11111 6.79446L4.41667 9.48293C4.78704 10.1596 5.22685 10.8134 5.73611 11.4444C6.24537 12.0754 6.80556 12.6835 7.41667 13.2687C7.99074 13.8357 8.59259 14.3615 9.22222 14.8461C9.85185 15.3308 10.5185 15.7743 11.2222 16.1767L13.8333 13.5979C14 13.4333 14.2176 13.3099 14.4861 13.2276C14.7546 13.1453 15.0185 13.1224 15.2778 13.159L19.1111 13.9271C19.3704 14.0003 19.5833 14.1329 19.75 14.3249C19.9167 14.5169 20 14.7318 20 14.9696V19.4138C20 19.743 19.8889 20.0173 19.6667 20.2368C19.4444 20.4563 19.1667 20.566 18.8333 20.566Z" fill="white"/>
</svg>
