<svg width="20" height="21" viewBox="0 0 20 21" fill="none" xmlns="http://www.w3.org/2000/svg">
<path d="M17.0781 3.68549C16.157 2.77157 15.0602 2.047 13.8515 1.55402C12.6427 1.06104 11.3463 0.809497 10.0377 0.814056C4.55424 0.814056 0.0853842 5.20639 0.0803616 10.5987C0.0803616 12.3257 0.53993 14.0059 1.40758 15.4935L0 20.566L5.27875 19.2056C6.73908 19.9869 8.3751 20.3965 10.0377 20.3969H10.0427C15.5274 20.3969 19.995 16.0045 20 10.6073C20.0012 9.32102 19.7436 8.0472 19.2419 6.85923C18.7402 5.67127 18.0057 4.59264 17.0781 3.68549ZM10.0377 18.7402C8.55474 18.7407 7.09907 18.3483 5.8237 17.6044L5.52235 17.4267L2.39076 18.234L3.22702 15.2305L3.03114 14.9206C2.20217 13.6248 1.76375 12.1245 1.7667 10.5937C1.7667 6.11745 5.47966 2.46581 10.0427 2.46581C11.1298 2.46389 12.2065 2.67355 13.2107 3.08268C14.215 3.49181 15.1269 4.09233 15.894 4.84962C16.6638 5.60396 17.274 6.50067 17.6895 7.48803C18.105 8.47539 18.3176 9.53385 18.3149 10.6024C18.3099 15.0947 14.5969 18.7402 10.0377 18.7402ZM14.5768 12.6492C14.3295 12.527 13.1077 11.9356 12.8779 11.8517C12.6494 11.7714 12.4824 11.7295 12.3192 11.9739C12.1522 12.2171 11.675 12.7714 11.5319 12.9306C11.3887 13.0948 11.2406 13.1133 10.992 12.9924C10.7446 12.8689 9.94224 12.6121 8.99297 11.7764C8.25213 11.1283 7.75615 10.3258 7.60798 10.0827C7.46484 9.83822 7.59417 9.70737 7.71848 9.58515C7.82772 9.47652 7.96584 9.29875 8.09015 9.15802C8.21572 9.01728 8.25715 8.91359 8.33877 8.75063C8.42039 8.58521 8.38146 8.44448 8.31994 8.32226C8.25715 8.20005 7.76117 6.99394 7.55148 6.50755C7.35058 6.02733 7.1459 6.094 6.99271 6.08782C6.84957 6.07918 6.68257 6.07918 6.51557 6.07918C6.38946 6.08226 6.26535 6.11094 6.15105 6.16341C6.03674 6.21589 5.9347 6.29102 5.85133 6.3841C5.6228 6.62853 4.98368 7.21986 4.98368 8.42596C4.98368 9.63206 5.87519 10.7913 6.00075 10.9554C6.12381 11.1196 7.75113 13.5874 10.2486 14.6491C10.8388 14.9021 11.3034 15.0515 11.6662 15.1651C12.2627 15.3527 12.8014 15.3243 13.2308 15.2638C13.7079 15.1922 14.7012 14.6713 14.9108 14.0997C15.1168 13.5269 15.1168 13.038 15.054 12.9356C14.9925 12.8319 14.8255 12.7714 14.5768 12.6492Z" fill="white"/>
</svg>
