<svg width="12" height="16" viewBox="0 0 12 16" fill="none" xmlns="http://www.w3.org/2000/svg">
<path d="M6.00135 7.88265C6.39688 7.88265 6.73503 7.73353 7.01579 7.43529C7.29655 7.13706 7.43693 6.77854 7.43693 6.35973C7.43693 5.94092 7.2961 5.58288 7.01444 5.2856C6.73278 4.98831 6.39418 4.83967 5.99865 4.83967C5.60312 4.83967 5.26497 4.98879 4.98421 5.28703C4.70345 5.58526 4.56307 5.94378 4.56307 6.36259C4.56307 6.7814 4.7039 7.13944 4.98556 7.43673C5.26722 7.73401 5.60582 7.88265 6.00135 7.88265ZM6 16C3.9995 14.1645 2.49937 12.4563 1.49961 10.8755C0.499871 9.29463 0 7.84327 0 6.5214C0 4.57907 0.593378 3.00659 1.78014 1.80396C2.96688 0.601319 4.3735 0 6 0C7.6265 0 9.03312 0.601319 10.2199 1.80396C11.4066 3.00659 12 4.57907 12 6.5214C12 7.84327 11.5001 9.29463 10.5004 10.8755C9.50063 12.4563 8.0005 14.1645 6 16Z" fill="#595959"/>
</svg>
