<svg width="18" height="18" viewBox="0 0 18 18" fill="none" xmlns="http://www.w3.org/2000/svg">
<path d="M11.3256 0.979007C11.0228 0.669103 10.661 0.422854 10.2617 0.25473C9.86228 0.0866065 9.43332 0 9 0C8.56668 0 8.13773 0.0866065 7.73835 0.25473C7.33898 0.422854 6.97724 0.669103 6.67439 0.979007L5.97457 1.69678L4.97322 1.68441C4.53977 1.67928 4.10967 1.76086 3.70821 1.92437C3.30675 2.08787 2.94204 2.32999 2.63553 2.63649C2.32901 2.94298 2.08688 3.30767 1.92336 3.70911C1.75985 4.11054 1.67826 4.54061 1.68339 4.97403L1.69464 5.97532L0.979068 6.6751C0.669145 6.97793 0.42288 7.33964 0.254746 7.73899C0.086612 8.13834 0 8.56727 0 9.00056C0 9.43386 0.086612 9.86278 0.254746 10.2621C0.42288 10.6615 0.669145 11.0232 0.979068 11.326L1.69577 12.0258L1.68339 13.0271C1.67826 13.4605 1.75985 13.8906 1.92336 14.292C2.08688 14.6935 2.32901 15.0581 2.63553 15.3646C2.94204 15.6711 3.30675 15.9133 3.70821 16.0768C4.10967 16.2403 4.53977 16.3218 4.97322 16.3167L5.97457 16.3055L6.67439 17.021C6.97724 17.3309 7.33898 17.5771 7.73835 17.7453C8.13773 17.9134 8.56668 18 9 18C9.43332 18 9.86228 17.9134 10.2617 17.7453C10.661 17.5771 11.0228 17.3309 11.3256 17.021L12.0254 16.3043L13.0268 16.3167C13.4602 16.3218 13.8903 16.2403 14.2918 16.0768C14.6932 15.9133 15.058 15.6711 15.3645 15.3646C15.671 15.0581 15.9131 14.6935 16.0766 14.292C16.2402 13.8906 16.3217 13.4605 16.3166 13.0271L16.3054 12.0258L17.0209 11.326C17.3309 11.0232 17.5771 10.6615 17.7453 10.2621C17.9134 9.86278 18 9.43386 18 9.00056C18 8.56727 17.9134 8.13834 17.7453 7.73899C17.5771 7.33964 17.3309 6.97793 17.0209 6.6751L16.3042 5.97532L16.3166 4.97403C16.3217 4.54061 16.2402 4.11054 16.0766 3.70911C15.9131 3.30767 15.671 2.94298 15.3645 2.63649C15.058 2.32999 14.6932 2.08787 14.2918 1.92437C13.8903 1.76086 13.4602 1.67928 13.0268 1.68441L12.0254 1.69566L11.3256 0.979007ZM11.6485 7.71126L8.27318 11.0864C8.22092 11.1388 8.15884 11.1803 8.0905 11.2087C8.02215 11.2371 7.94888 11.2517 7.87489 11.2517C7.80089 11.2517 7.72762 11.2371 7.65928 11.2087C7.59093 11.1803 7.52885 11.1388 7.4766 11.0864L5.78893 9.39883C5.73662 9.34653 5.69513 9.28444 5.66683 9.2161C5.63852 9.14777 5.62395 9.07453 5.62395 9.00056C5.62395 8.9266 5.63852 8.85336 5.66683 8.78502C5.69513 8.71669 5.73662 8.6546 5.78893 8.6023C5.84123 8.55 5.90333 8.50851 5.97166 8.4802C6.04 8.4519 6.11325 8.43733 6.18722 8.43733C6.26119 8.43733 6.33443 8.4519 6.40277 8.4802C6.47111 8.50851 6.5332 8.55 6.58551 8.6023L7.87489 9.89272L10.8519 6.91473C10.9576 6.80911 11.1008 6.74977 11.2502 6.74977C11.3996 6.74977 11.5429 6.80911 11.6485 6.91473C11.7542 7.02036 11.8135 7.16362 11.8135 7.313C11.8135 7.46238 11.7542 7.60564 11.6485 7.71126Z" fill="url(#paint0_linear_288_163)"/>
<defs>
<linearGradient id="paint0_linear_288_163" x1="9" y1="0" x2="9" y2="18" gradientUnits="userSpaceOnUse">
<stop stop-color="#2ABD27"/>
<stop offset="0.0001" stop-color="#24DD20"/>
<stop offset="1" stop-color="#47BC45"/>
</linearGradient>
</defs>
</svg>
