<svg width="16" height="16" viewBox="0 0 16 16" fill="none" xmlns="http://www.w3.org/2000/svg">
<path d="M13.6371 2.32605C12.9036 1.58573 12.0301 0.998793 11.0674 0.599454C10.1048 0.200115 9.07231 -0.00364427 8.03013 4.93305e-05C3.66313 4.93305e-05 0.104133 3.55805 0.100133 7.92605C0.100133 9.32505 0.466133 10.686 1.15713 11.891L0.0361328 16L4.24013 14.898C5.40314 15.531 6.70606 15.8627 8.03013 15.863H8.03413C12.4021 15.863 15.9601 12.305 15.9641 7.93305C15.9651 6.89109 15.7599 5.85924 15.3604 4.89693C14.9609 3.93462 14.3758 3.06088 13.6371 2.32605ZM8.03013 14.521C6.84913 14.5214 5.68984 14.2036 4.67413 13.601L4.43413 13.457L1.94013 14.111L2.60613 11.6781L2.45013 11.427C1.78994 10.3774 1.44078 9.16208 1.44313 7.92205C1.44313 4.29605 4.40013 1.33805 8.03413 1.33805C8.89987 1.3365 9.75736 1.50632 10.5572 1.83774C11.3569 2.16916 12.0832 2.65561 12.6941 3.26905C13.3072 3.8801 13.7932 4.60647 14.1241 5.40628C14.455 6.20609 14.6242 7.06349 14.6221 7.92905C14.6181 11.568 11.6611 14.521 8.03013 14.521ZM11.6451 9.58705C11.4481 9.48805 10.4751 9.00905 10.2921 8.94105C10.1101 8.87605 9.97713 8.84205 9.84713 9.04005C9.71413 9.23705 9.33413 9.68605 9.22013 9.81505C9.10613 9.94805 8.98813 9.96305 8.79013 9.86505C8.59313 9.76505 7.95413 9.55705 7.19813 8.88005C6.60813 8.35505 6.21313 7.70505 6.09513 7.50805C5.98113 7.31005 6.08413 7.20405 6.18313 7.10505C6.27013 7.01705 6.38013 6.87305 6.47913 6.75905C6.57913 6.64505 6.61213 6.56105 6.67713 6.42905C6.74213 6.29505 6.71113 6.18105 6.66213 6.08205C6.61213 5.98305 6.21713 5.00605 6.05013 4.61205C5.89013 4.22305 5.72713 4.27705 5.60513 4.27205C5.49113 4.26505 5.35813 4.26505 5.22513 4.26505C5.1247 4.26755 5.02586 4.29078 4.93483 4.33328C4.84379 4.37579 4.76253 4.43665 4.69613 4.51205C4.51413 4.71005 4.00513 5.18905 4.00513 6.16605C4.00513 7.14305 4.71513 8.08205 4.81513 8.21505C4.91313 8.34805 6.20913 10.347 8.19813 11.207C8.66813 11.412 9.03813 11.533 9.32713 11.625C9.80213 11.7771 10.2311 11.754 10.5731 11.705C10.9531 11.647 11.7441 11.225 11.9111 10.762C12.0751 10.298 12.0751 9.90205 12.0251 9.81905C11.9761 9.73505 11.8431 9.68605 11.6451 9.58705Z" fill="white"/>
</svg>
