<svg width="310" height="137" viewBox="0 0 310 137" fill="none" xmlns="http://www.w3.org/2000/svg">
<path d="M27.5186 93.8565V125.104C27.5186 125.104 46.2451 133.482 49.213 133.256V87.0623L27.5186 93.8565Z" fill="white"/>
<path d="M51.0415 86.156V133.706C51.0415 133.706 67.4839 135.744 72.508 133.48V79.1382L51.0415 86.156Z" fill="white"/>
<path d="M74.5615 78.4578V133.254C74.5615 133.254 89.8618 129.631 96.028 124.649V71.44L74.5615 78.4578Z" fill="white"/>
<path d="M61.7735 136.312C45.2741 136.312 29.7608 129.952 18.0948 118.408C6.42632 106.86 0 91.5083 0 75.1761C0 55.1766 9.91447 36.4078 26.5204 24.9662L28.0216 23.932L30.1076 26.9067L28.6063 27.9408C12.9815 38.7044 3.65414 56.363 3.65414 75.1761C3.65414 106.89 29.7261 132.689 61.7735 132.689C93.8209 132.689 119.893 106.887 119.893 75.1761C119.893 65.9206 117.74 57.0852 113.494 48.913L112.656 47.3016L115.904 45.6411L116.742 47.2525C121.258 55.943 123.547 65.336 123.547 75.1761C123.547 91.5058 117.121 106.86 105.452 118.408C93.7862 129.952 78.2728 136.312 61.7735 136.312Z" fill="white"/>
<path d="M61.79 123.066L61.7725 122.839H61.79V123.066Z" fill="#0B8B00"/>
<path d="M74.4478 27.6239V76.5345L96.1422 69.5118V35.7765L74.4478 27.6239Z" fill="url(#paint0_linear_346_11567)"/>
<path d="M50.9248 8.83053L61.6593 0L72.6217 8.83053V76.9864L50.9248 84.2326V8.83053Z" fill="url(#paint1_linear_346_11567)"/>
<path d="M27.4048 43.0227L49.0992 34.8701V84.9106L27.4048 92.1567" fill="url(#paint2_linear_346_11567)"/>
<path d="M152.717 54.9187H138.757V34.0031H152.442V38.4343H143.871V42.4406H151.402V46.7809H143.871V50.4851H152.717V54.9187Z" fill="white"/>
<path d="M171.64 39.6207C171.64 40.4092 171.404 41.2198 170.936 42.05C170.465 42.8803 169.712 43.4452 168.669 43.7498C169.995 43.9512 171.005 44.5506 171.699 45.5405C172.393 46.5328 172.74 47.594 172.74 48.7288C172.74 50.4482 172.177 51.9122 171.055 53.1158C169.933 54.3194 168.176 54.9212 165.788 54.9212H156.542V34.0055H165.176C167.136 34.0055 168.701 34.5214 169.876 35.553C171.052 36.5847 171.64 37.9406 171.64 39.6207ZM161.688 42.0795H164.443C164.973 42.0795 165.402 41.9223 165.729 41.6079C166.056 41.2935 166.219 40.8734 166.219 40.3478C166.219 39.0729 165.647 38.4343 164.505 38.4343H161.688V42.0795ZM164.933 46.2381H161.688V50.4875H164.963C165.719 50.4875 166.301 50.2738 166.707 49.8489C167.116 49.4239 167.319 48.9179 167.319 48.3309C167.319 47.7856 167.121 47.2992 166.722 46.8743C166.328 46.4518 165.731 46.2381 164.933 46.2381Z" fill="white"/>
<path d="M190.223 54.9187H176.263V34.003H189.948V38.4343H181.376V42.4405H188.908V46.7809H181.376V50.485H190.223V54.9187Z" fill="white"/>
<path d="M199.161 54.9187H194.048V34.003H202.773C205.099 34.003 206.886 34.6908 208.132 36.0664C209.375 37.4419 210 39.0827 210 40.9839C210 42.5634 209.566 43.9733 208.699 45.2187C207.832 46.464 206.581 47.2869 204.948 47.6922L210.091 54.9163H204.153L199.622 47.9354H199.164V54.9187H199.161ZM202.53 38.4367H199.164V43.5656H202.53C203.306 43.5656 203.883 43.3125 204.26 42.8065C204.636 42.3005 204.827 41.6938 204.827 40.9864C204.827 40.279 204.639 39.6772 204.26 39.181C203.881 38.6848 203.306 38.4367 202.53 38.4367Z" fill="white"/>
<path d="M150.518 75.5127L156.365 62.7937H160.683L163.255 83.7094H157.988L156.702 72.4471L152.446 81.2801H148.588L144.303 72.4471L142.987 83.7094H137.72L140.321 62.7937H144.578L150.518 75.5127Z" fill="white"/>
<path d="M179.816 83.707L178.039 78.9097H171.395L169.619 83.707H164.139L171.915 62.7913H177.487L185.234 83.707H179.816ZM174.672 67.6499L172.775 74.5399H176.724L174.672 67.6499Z" fill="white"/>
<path d="M192.368 83.707H187.255V62.7913H195.98C198.306 62.7913 200.093 63.479 201.339 64.8546C202.582 66.2301 203.207 67.871 203.207 69.7722C203.207 71.3516 202.773 72.7615 201.906 74.0069C201.039 75.2523 199.788 76.0751 198.155 76.4804L203.298 83.7045H197.36L192.829 76.7236H192.371V83.707H192.368ZM195.735 67.225H192.368V72.3562H195.735C196.51 72.3562 197.088 72.1032 197.464 71.5972C197.841 71.0912 198.031 70.4845 198.031 69.7746C198.031 69.0672 197.843 68.4654 197.464 67.9692C197.088 67.473 196.51 67.225 195.735 67.225Z" fill="white"/>
<path d="M221.24 76.2716L225.434 79.1849C224.455 80.6611 223.174 81.8303 221.591 82.69C220.008 83.5498 218.299 83.9796 216.463 83.9796C213.503 83.9796 210.973 82.9332 208.87 80.838C206.767 78.7427 205.716 76.2201 205.716 73.2651C205.716 70.2905 206.762 67.7555 208.855 65.6603C210.946 63.565 213.483 62.5186 216.463 62.5186C218.321 62.5186 220.041 62.9485 221.621 63.8082C223.202 64.6679 224.485 65.8371 225.464 67.3134L221.207 70.2585C220.717 69.4504 220.048 68.8069 219.203 68.3303C218.356 67.8563 217.442 67.618 216.463 67.618C214.912 67.618 213.594 68.1707 212.514 69.2711C211.432 70.374 210.892 71.7053 210.892 73.2626C210.892 74.82 211.432 76.1464 212.514 77.2394C213.597 78.3325 214.912 78.8778 216.463 78.8778C217.464 78.8778 218.381 78.6445 219.218 78.1802C220.055 77.7184 220.729 77.0798 221.24 76.2716Z" fill="white"/>
<path d="M240.098 71.0495V62.7937H245.303V83.7094H240.098V75.5741H233.669V83.7094H228.556V62.7937H233.669V71.0495H240.098Z" fill="white"/>
<path d="M263.977 83.707H250.017V62.7913H263.702V67.2225H255.13V71.2288H262.662V75.5691H255.13V79.2733H263.977V83.707Z" fill="white"/>
<path d="M271.724 67.225H266.274V62.7937H282.285V67.225H276.835V83.707H271.722V67.225H271.724Z" fill="white"/>
<path d="M289.388 67.225H283.938V62.7937H299.949V67.225H294.499V83.707H289.385V67.225H289.388Z" fill="white"/>
<path d="M303.135 83.707V62.7913H308.249V83.707H303.135Z" fill="white"/>
<path d="M144.208 96.6052H149.059C149.059 98.6095 148.561 100.125 147.567 101.152C146.574 102.179 145.189 102.69 143.413 102.69C141.696 102.69 140.249 102.09 139.075 100.889C137.898 99.6879 137.311 98.2313 137.311 96.5167C137.311 94.7924 137.898 93.3284 139.075 92.1273C140.252 90.9261 141.696 90.3268 143.413 90.3268C144.87 90.3268 146.165 90.7935 147.292 91.7269L146.462 92.5498C145.581 91.8399 144.562 91.4837 143.41 91.4837C142.023 91.4837 140.854 91.9725 139.9 92.9526C138.949 93.9327 138.47 95.1215 138.47 96.5192C138.47 97.9168 138.944 99.1057 139.89 100.078C140.836 101.051 142.008 101.54 143.408 101.54C144.713 101.54 145.744 101.199 146.502 100.516C147.26 99.8328 147.674 98.892 147.746 97.6909H144.201V96.6052H144.208Z" fill="white"/>
<path d="M151.457 90.4668H158.389V91.6213H152.621V96.028H157.665V97.1824H152.621V101.361H158.582V102.515H151.457V90.4668Z" fill="white"/>
<path d="M161.493 99.0517C161.493 99.6928 161.751 100.268 162.269 100.774C162.787 101.28 163.451 101.535 164.261 101.535C165.108 101.535 165.789 101.341 166.307 100.948C166.825 100.557 167.137 100.093 167.241 99.5577C167.348 98.87 167.179 98.3173 166.738 97.8972C166.297 97.4772 165.695 97.18 164.93 97.0056L163.29 96.6371C161.384 96.2171 160.433 95.21 160.433 93.6109C160.433 92.6677 160.815 91.8817 161.58 91.2578C162.346 90.6339 163.233 90.3219 164.243 90.3219C165.336 90.3219 166.245 90.6388 166.969 91.275C167.692 91.9111 168.054 92.7414 168.054 93.7657H166.889C166.889 93.0779 166.639 92.5252 166.139 92.1052C165.638 91.6852 165.006 91.4764 164.243 91.4764C163.55 91.4764 162.935 91.6778 162.4 92.0806C161.865 92.4835 161.598 92.9919 161.598 93.6109C161.598 94.591 162.244 95.2247 163.537 95.5171L165.195 95.8855C166.277 96.1311 167.12 96.5708 167.727 97.207C168.331 97.8432 168.552 98.6955 168.388 99.769C168.234 100.55 167.801 101.233 167.082 101.815C166.364 102.397 165.425 102.69 164.261 102.69C163.121 102.69 162.18 102.316 161.439 101.569C160.698 100.823 160.327 99.9851 160.327 99.0517H161.493Z" fill="white"/>
<path d="M169.765 90.4668H178.726V91.6213H174.829V102.515H173.665V91.6213H169.768V90.4668H169.765Z" fill="white"/>
<path d="M179.801 102.515H178.55L183.225 90.4668H184.458L189.133 102.515H187.882L186.643 99.3514H181.017L179.801 102.515ZM186.237 98.2657L183.839 92.0757L181.441 98.2657H186.237ZM183.029 88.0719C182.888 88.0719 182.756 88.1382 182.633 88.2733C182.509 88.4084 182.442 88.6024 182.429 88.8579H181.53C181.565 88.2045 181.731 87.728 182.023 87.4234C182.318 87.1213 182.652 86.969 183.029 86.969C183.311 86.969 183.611 87.0918 183.928 87.3374C184.245 87.5831 184.481 87.7059 184.634 87.7059C184.775 87.7059 184.907 87.6469 185.031 87.5315C185.154 87.416 185.221 87.2293 185.234 86.9714H186.133C186.098 87.6248 185.935 88.094 185.647 88.3789C185.36 88.6638 185.021 88.8063 184.634 88.8063C184.352 88.8063 184.052 88.6835 183.735 88.4379C183.415 88.1922 183.18 88.0719 183.029 88.0719Z" fill="white"/>
<path d="M190.136 96.5167C190.136 94.7924 190.723 93.3284 191.9 92.1273C193.076 90.9261 194.521 90.3268 196.238 90.3268C197.954 90.3268 199.404 90.9261 200.585 92.1273C201.767 93.3284 202.357 94.7924 202.357 96.5167C202.357 98.2313 201.767 99.6879 200.585 100.889C199.404 102.09 197.954 102.69 196.238 102.69C194.521 102.69 193.074 102.09 191.9 100.889C190.723 99.6879 190.136 98.2313 190.136 96.5167ZM192.727 92.9501C191.776 93.9302 191.298 95.1191 191.298 96.5167C191.298 97.9144 191.771 99.1033 192.717 100.076C193.664 101.049 194.835 101.537 196.235 101.537C197.635 101.537 198.809 101.051 199.763 100.076C200.714 99.1033 201.192 97.9169 201.192 96.5167C201.192 95.1166 200.717 93.9278 199.763 92.9501C198.812 91.9701 197.635 91.4813 196.235 91.4813C194.85 91.4813 193.681 91.9701 192.727 92.9501Z" fill="white"/>
<path d="M210.929 90.4668V102.515H209.765V90.4668H210.929Z" fill="white"/>
<path d="M221.034 99.8574L225.637 90.4668H226.801L228.283 102.515H227.136L225.902 92.5301L221.616 101.203H220.452L216.148 92.5301L214.915 102.515H213.768L215.249 90.4668H216.413L221.034 99.8574Z" fill="white"/>
<path d="M230.312 96.5167C230.312 94.7924 230.899 93.3284 232.076 92.1273C233.253 90.9261 234.697 90.3268 236.414 90.3268C238.131 90.3268 239.58 90.9261 240.762 92.1273C241.943 93.3284 242.533 94.7924 242.533 96.5167C242.533 98.2313 241.943 99.6879 240.762 100.889C239.58 102.09 238.131 102.69 236.414 102.69C234.697 102.69 233.25 102.09 232.076 100.889C230.899 99.6879 230.312 98.2313 230.312 96.5167ZM232.906 92.9501C231.955 93.9302 231.476 95.1191 231.476 96.5167C231.476 97.9144 231.95 99.1033 232.896 100.076C233.842 101.049 235.014 101.537 236.414 101.537C237.814 101.537 238.988 101.051 239.942 100.076C240.893 99.1033 241.371 97.9169 241.371 96.5167C241.371 95.1166 240.895 93.9278 239.942 92.9501C238.99 91.9701 237.814 91.4813 236.414 91.4813C235.026 91.4813 233.857 91.9701 232.906 92.9501Z" fill="white"/>
<path d="M252.837 93.4562C252.837 94.8563 252.344 95.7357 251.355 96.0967C251.955 96.2024 252.46 96.5634 252.871 97.18C253.283 97.799 253.488 98.4499 253.488 99.1377C253.488 100.081 253.184 100.882 252.572 101.533C251.96 102.184 251.132 102.513 250.084 102.513H245.251V90.4644H249.678C250.654 90.4644 251.425 90.7321 251.989 91.2676C252.554 91.808 252.837 92.5351 252.837 93.4562ZM246.433 95.5907H249.819C250.419 95.5907 250.877 95.3844 251.194 94.9693C251.511 94.5566 251.67 94.0506 251.67 93.4562C251.67 92.8618 251.479 92.4049 251.098 92.0831C250.716 91.7638 250.201 91.6017 249.554 91.6017H246.433V95.5907ZM249.995 96.674H246.433V101.361H250.067C250.738 101.361 251.281 101.142 251.7 100.705C252.116 100.268 252.326 99.7469 252.326 99.1401C252.326 98.5457 252.106 97.9857 251.665 97.4625C251.221 96.9368 250.667 96.674 249.995 96.674Z" fill="white"/>
<path d="M257.367 90.4668V102.515H256.203V90.4668H257.367Z" fill="white"/>
<path d="M260.896 90.4668H262.06V101.361H267.21V102.515H260.896V90.4668Z" fill="white"/>
<path d="M270.649 90.4668V102.515H269.484V90.4668H270.649Z" fill="white"/>
<path d="M273.998 102.515H272.747L277.422 90.4668H278.656L283.33 102.515H282.079L280.846 99.3489H275.22L273.998 102.515ZM280.437 98.2657L278.039 92.0757L275.641 98.2657H280.437ZM280.065 86.969L278.584 89.3123H277.385L278.618 86.969H280.065Z" fill="white"/>
<path d="M290.084 97.8113L293.436 102.515H292.006L288.654 97.8113H286.608V102.515H285.426V90.4668H289.943C291.095 90.4668 291.944 90.823 292.492 91.5329C293.039 92.2452 293.312 93.1197 293.312 94.1562C293.312 95.1707 293.049 96.0255 292.526 96.7182C292.004 97.4109 291.189 97.7769 290.084 97.8113ZM289.943 91.6213H286.608V96.6568H289.853C290.654 96.6568 291.236 96.4185 291.6 95.9395C291.964 95.4605 292.147 94.8661 292.147 94.1562C292.147 93.4464 291.969 92.8446 291.61 92.3557C291.251 91.8645 290.696 91.6213 289.943 91.6213Z" fill="white"/>
<path d="M297.315 90.4668V102.515H296.151V90.4668H297.315Z" fill="white"/>
<path d="M300.668 102.515H299.417L304.091 90.4668H305.325L310 102.515H308.749L307.515 99.3489H301.889L300.668 102.515ZM307.104 98.2657L304.706 92.0757L302.308 98.2657H307.104Z" fill="white"/>
<defs>
<linearGradient id="paint0_linear_346_11567" x1="85.2958" y1="76.5338" x2="85.2958" y2="27.625" gradientUnits="userSpaceOnUse">
<stop stop-color="#223395"/>
<stop offset="1" stop-color="#78A1FF"/>
</linearGradient>
<linearGradient id="paint1_linear_346_11567" x1="61.7735" y1="84.2324" x2="61.7735" y2="0.000562308" gradientUnits="userSpaceOnUse">
<stop stop-color="#223395"/>
<stop offset="1" stop-color="#78A1FF"/>
</linearGradient>
<linearGradient id="paint2_linear_346_11567" x1="38.2516" y1="92.1575" x2="38.2516" y2="34.8707" gradientUnits="userSpaceOnUse">
<stop stop-color="#223395"/>
<stop offset="1" stop-color="#78A1FF"/>
</linearGradient>
</defs>
</svg>
