<svg width="29" height="24" viewBox="0 0 29 24" fill="none" xmlns="http://www.w3.org/2000/svg">
<path d="M7.21888 8.4C6.42481 8.4 5.74503 8.165 5.17955 7.695C4.61407 7.225 4.33133 6.66 4.33133 6C4.33133 5.34 4.61407 4.775 5.17955 4.305C5.74503 3.835 6.42481 3.6 7.21888 3.6C8.01296 3.6 8.69274 3.835 9.25822 4.305C9.8237 4.775 10.1064 5.34 10.1064 6C10.1064 6.66 9.8237 7.225 9.25822 7.695C8.69274 8.165 8.01296 8.4 7.21888 8.4ZM4.33133 24C3.92226 24 3.57936 23.885 3.30264 23.655C3.02592 23.425 2.88755 23.14 2.88755 22.8C2.09348 22.8 1.4137 22.565 0.848219 22.095C0.28274 21.625 0 21.06 0 20.4V13.2H4.33133V12.3C4.33133 11.54 4.64415 10.9 5.26979 10.38C5.89542 9.86 6.66544 9.6 7.57983 9.6C8.06109 9.6 8.50625 9.68 8.91532 9.84C9.32439 10 9.69737 10.22 10.0342 10.5L12.0555 12.36C12.248 12.52 12.4345 12.67 12.615 12.81C12.7955 12.95 12.994 13.08 13.2106 13.2H23.1004V3.42C23.1004 3.14 22.9801 2.9 22.7395 2.7C22.4989 2.5 22.2101 2.4 21.8732 2.4C21.7288 2.4 21.5905 2.425 21.4581 2.475C21.3258 2.525 21.1995 2.6 21.0791 2.7L19.2744 4.2C19.3947 4.54 19.4188 4.875 19.3466 5.205C19.2744 5.535 19.13 5.84 18.9135 6.12L14.9431 2.76C15.28 2.58 15.6409 2.465 16.0259 2.415C16.4109 2.365 16.7959 2.4 17.1809 2.52L18.9857 1.02C19.3707 0.7 19.8098 0.45 20.3031 0.27C20.7964 0.09 21.3198 0 21.8732 0C23.0282 0 24.0028 0.33 24.7969 0.99C25.5909 1.65 25.988 2.46 25.988 3.42V13.2H28.8755V20.4C28.8755 21.06 28.5928 21.625 28.0273 22.095C27.4618 22.565 26.7821 22.8 25.988 22.8C25.988 23.14 25.8496 23.425 25.5729 23.655C25.2962 23.885 24.9533 24 24.5442 24H4.33133Z" fill="#595959"/>
</svg>
