<svg width="35" height="24" viewBox="0 0 35 24" fill="none" xmlns="http://www.w3.org/2000/svg">
<path d="M6.77244 24H4.65656L3.28124 20.5714H0.424805V11.9571C0.424805 11.0143 0.839164 10.2143 1.66788 9.55714C2.4966 8.9 3.49283 8.57143 4.65656 8.57143V3.42857C4.65656 2.48571 5.07092 1.67857 5.89964 1.00714C6.72836 0.335714 7.72459 0 8.88832 0H25.8154C26.9791 0 27.9753 0.335714 28.804 1.00714C29.6328 1.67857 30.0471 2.48571 30.0471 3.42857V8.57143C31.2109 8.57143 32.2071 8.90714 33.0358 9.57857C33.8645 10.25 34.2789 11.0571 34.2789 12V20.5714H31.4224L30.0471 24H27.9312L26.5559 20.5714H8.14777L6.77244 24ZM19.4677 8.57143H25.8154V3.42857H19.4677V8.57143ZM8.88832 8.57143H15.236V3.42857H8.88832V8.57143Z" fill="#595959"/>
</svg>
