<svg width="32" height="24" viewBox="0 0 32 24" fill="none" xmlns="http://www.w3.org/2000/svg">
<path d="M8.41373 4.575L6.78948 8.57143H25.0732L23.4489 4.575C23.1689 3.88929 22.4159 3.42857 21.5695 3.42857H10.2931C9.44678 3.42857 8.69378 3.88929 8.41373 4.575ZM2.46438 8.82857L4.65494 3.44464C5.49506 1.38214 7.75408 0 10.2931 0H21.5695C24.1086 0 26.3676 1.38214 27.2077 3.44464L29.3983 8.82857C30.8421 9.34286 31.8627 10.5696 31.8627 12V19.7143V22.2857C31.8627 23.2339 30.9727 24 29.8712 24H27.8798C26.7783 24 25.8884 23.2339 25.8884 22.2857V19.7143H5.97425V22.2857C5.97425 23.2339 5.08433 24 3.98283 24H1.99142C0.889914 24 0 23.2339 0 22.2857V19.7143V12C0 10.5696 1.0206 9.34286 2.46438 8.82857ZM7.96567 13.7143C7.96567 13.2596 7.75586 12.8236 7.38239 12.5021C7.00893 12.1806 6.50241 12 5.97425 12C5.44609 12 4.93957 12.1806 4.5661 12.5021C4.19264 12.8236 3.98283 13.2596 3.98283 13.7143C3.98283 14.1689 4.19264 14.605 4.5661 14.9265C4.93957 15.248 5.44609 15.4286 5.97425 15.4286C6.50241 15.4286 7.00893 15.248 7.38239 14.9265C7.75586 14.605 7.96567 14.1689 7.96567 13.7143ZM25.8884 15.4286C26.4166 15.4286 26.9231 15.248 27.2966 14.9265C27.67 14.605 27.8798 14.1689 27.8798 13.7143C27.8798 13.2596 27.67 12.8236 27.2966 12.5021C26.9231 12.1806 26.4166 12 25.8884 12C25.3603 12 24.8537 12.1806 24.4803 12.5021C24.1068 12.8236 23.897 13.2596 23.897 13.7143C23.897 14.1689 24.1068 14.605 24.4803 14.9265C24.8537 15.248 25.3603 15.4286 25.8884 15.4286Z" fill="#595959"/>
</svg>
