<svg width="141" height="62" viewBox="0 0 141 62" fill="none" xmlns="http://www.w3.org/2000/svg">
<path d="M12.5166 42.6897V56.9021C12.5166 56.9021 21.0342 60.713 22.3841 60.6102V39.5994L12.5166 42.6897Z" fill="white"/>
<path d="M23.2156 39.1871V60.8146C23.2156 60.8146 30.6942 61.7419 32.9794 60.7118V35.9952L23.2156 39.1871Z" fill="white"/>
<path d="M33.9136 35.6857V60.6091C33.9136 60.6091 40.8728 58.9611 43.6774 56.6954V32.4938L33.9136 35.6857Z" fill="white"/>
<path d="M28.097 62C20.5925 62 13.5364 59.1075 8.23022 53.8565C2.92295 48.6043 0 41.6216 0 34.1931C0 25.0965 4.5095 16.5597 12.0625 11.3556L12.7454 10.8852L13.6941 12.2382L13.0113 12.7086C5.90449 17.6043 1.66205 25.6361 1.66205 34.1931C1.66205 48.6177 13.5206 60.3521 28.097 60.3521C42.6734 60.3521 54.532 48.6166 54.532 34.1931C54.532 29.9833 53.5528 25.9646 51.6214 22.2475L51.2406 21.5146L52.7178 20.7594L53.0987 21.4923C55.1529 25.4451 56.194 29.7174 56.194 34.1931C56.194 41.6205 53.2711 48.6043 47.9638 53.8565C42.6577 59.1075 35.6016 62 28.097 62Z" fill="white"/>
<path d="M28.1049 55.9754L28.0969 55.872H28.1049V55.9754Z" fill="#0B8B00"/>
<path d="M33.8618 12.5645V34.8109L43.7293 31.6167V16.2726L33.8618 12.5645Z" fill="url(#paint0_linear_346_8842)"/>
<path d="M23.1628 4.01647L28.0453 0L33.0314 4.01647V35.0165L23.1628 38.3123V4.01647Z" fill="url(#paint1_linear_346_8842)"/>
<path d="M12.4648 19.5684L22.3323 15.8603V38.6207L12.4648 41.9165" fill="url(#paint2_linear_346_8842)"/>
<path d="M69.4621 24.9792H63.1125V15.4659H69.3371V17.4814H65.4383V19.3036H68.8638V21.2778H65.4383V22.9626H69.4621V24.9792Z" fill="white"/>
<path d="M78.0687 18.0211C78.0687 18.3797 77.9616 18.7484 77.7487 19.126C77.5346 19.5036 77.192 19.7606 76.7176 19.8991C77.3205 19.9908 77.7802 20.2634 78.0957 20.7136C78.4112 21.165 78.569 21.6476 78.569 22.1638C78.569 22.9458 78.3132 23.6117 77.8028 24.1592C77.2923 24.7066 76.4934 24.9803 75.4072 24.9803H71.2019V15.4671H75.1288C76.0201 15.4671 76.7323 15.7017 77.2664 16.1709C77.8016 16.6402 78.0687 17.2569 78.0687 18.0211ZM73.5423 19.1394H74.7953C75.0364 19.1394 75.2314 19.0679 75.3801 18.9249C75.5289 18.7819 75.6032 18.5909 75.6032 18.3518C75.6032 17.7719 75.3429 17.4814 74.8235 17.4814H73.5423V19.1394ZM75.0184 21.0309H73.5423V22.9637H75.0319C75.3756 22.9637 75.6404 22.8665 75.8252 22.6732C76.0111 22.48 76.1035 22.2498 76.1035 21.9828C76.1035 21.7348 76.0134 21.5135 75.832 21.3203C75.6528 21.1281 75.3812 21.0309 75.0184 21.0309Z" fill="white"/>
<path d="M86.521 24.9792H80.1714V15.4659H86.3959V17.4814H82.4971V19.3036H85.9226V21.2778H82.4971V22.9626H86.521V24.9792Z" fill="white"/>
<path d="M90.5865 24.9792H88.2607V15.4659H92.2294C93.2874 15.4659 94.0999 15.7788 94.6667 16.4044C95.2323 17.0301 95.5163 17.7764 95.5163 18.6411C95.5163 19.3595 95.3191 20.0008 94.9247 20.5672C94.5303 21.1337 93.9613 21.508 93.2187 21.6923L95.558 24.9781H92.857L90.7961 21.8029H90.5876V24.9792H90.5865ZM92.1189 17.4825H90.5876V19.8153H92.1189C92.4716 19.8153 92.7342 19.7003 92.9055 19.4701C93.0767 19.24 93.1635 18.964 93.1635 18.6422C93.1635 18.3205 93.0779 18.0467 92.9055 17.8211C92.733 17.5954 92.4716 17.4825 92.1189 17.4825Z" fill="white"/>
<path d="M68.4617 34.3461L71.121 28.5611H73.085L74.2547 38.0744H71.8591L71.2742 32.9518L69.3384 36.9694H67.5839L65.6346 32.9518L65.0362 38.0744H62.6406L63.8238 28.5611H65.7596L68.4617 34.3461Z" fill="white"/>
<path d="M81.7872 38.0732L80.9793 35.8913H77.9572L77.1492 38.0732H74.6567L78.1938 28.56H80.728L84.2515 38.0732H81.7872ZM79.4479 30.7699L78.5848 33.9037H80.3809L79.4479 30.7699Z" fill="white"/>
<path d="M87.4969 38.0732H85.1711V28.56H89.1398C90.1978 28.56 91.0103 28.8728 91.5771 29.4984C92.1427 30.1241 92.4267 30.8704 92.4267 31.7351C92.4267 32.4535 92.2295 33.0948 91.8351 33.6613C91.4407 34.2277 90.8717 34.602 90.1291 34.7863L92.4684 38.0721H89.7674L87.7065 34.8969H87.498V38.0732H87.4969ZM89.0282 30.5766H87.4969V32.9105H89.0282C89.3809 32.9105 89.6435 32.7954 89.8147 32.5653C89.986 32.3351 90.0728 32.0591 90.0728 31.7363C90.0728 31.4145 89.9871 31.1408 89.8147 30.9151C89.6435 30.6894 89.3809 30.5766 89.0282 30.5766Z" fill="white"/>
<path d="M100.628 34.6914L102.536 36.0164C102.091 36.6879 101.509 37.2197 100.788 37.6107C100.068 38.0017 99.2909 38.1973 98.456 38.1973C97.1094 38.1973 95.959 37.7213 95.0023 36.7683C94.0456 35.8153 93.5679 34.6679 93.5679 33.3239C93.5679 31.9709 94.0434 30.8179 94.9955 29.8649C95.9466 28.9119 97.1004 28.4359 98.456 28.4359C99.3011 28.4359 100.083 28.6315 100.802 29.0225C101.521 29.4135 102.105 29.9453 102.55 30.6168L100.614 31.9564C100.391 31.5888 100.086 31.2961 99.7022 31.0793C99.3169 30.8637 98.9011 30.7553 98.456 30.7553C97.7506 30.7553 97.1511 31.0067 96.6598 31.5072C96.1674 32.0089 95.9218 32.6144 95.9218 33.3227C95.9218 34.0311 96.1674 34.6344 96.6598 35.1315C97.1523 35.6287 97.7506 35.8768 98.456 35.8768C98.9112 35.8768 99.3281 35.7706 99.709 35.5595C100.09 35.3494 100.396 35.0589 100.628 34.6914Z" fill="white"/>
<path d="M109.206 32.3161V28.5611H111.574V38.0744H109.206V34.3741H106.282V38.0744H103.956V28.5611H106.282V32.3161H109.206Z" fill="white"/>
<path d="M120.067 38.0732H113.718V28.56H119.942V30.5755H116.044V32.3977H119.469V34.3718H116.044V36.0566H120.067V38.0732Z" fill="white"/>
<path d="M123.591 30.5766H121.112V28.5611H128.394V30.5766H125.915V38.0732H123.59V30.5766H123.591Z" fill="white"/>
<path d="M131.625 30.5766H129.146V28.5611H136.429V30.5766H133.95V38.0732H131.624V30.5766H131.625Z" fill="white"/>
<path d="M137.878 38.0732V28.56H140.203V38.0732H137.878Z" fill="white"/>
<path d="M65.5916 43.9399H67.7979C67.7979 44.8515 67.5714 45.5409 67.1196 46.0079C66.6677 46.4749 66.0378 46.7073 65.2299 46.7073C64.449 46.7073 63.791 46.4347 63.2569 45.8883C62.7216 45.342 62.4546 44.6795 62.4546 43.8996C62.4546 43.1153 62.7216 42.4495 63.2569 41.9031C63.7921 41.3568 64.449 41.0842 65.2299 41.0842C65.8925 41.0842 66.4818 41.2965 66.9945 41.721L66.617 42.0953C66.2159 41.7724 65.7528 41.6104 65.2288 41.6104C64.5978 41.6104 64.0659 41.8327 63.6321 42.2785C63.1994 42.7243 62.9819 43.265 62.9819 43.9008C62.9819 44.5365 63.1972 45.0772 63.6276 45.5196C64.058 45.9621 64.591 46.1844 65.2277 46.1844C65.8215 46.1844 66.2902 46.0291 66.6351 45.7185C66.9799 45.4079 67.168 44.98 67.2007 44.4337H65.5882V43.9399H65.5916Z" fill="white"/>
<path d="M68.8887 41.1479H72.0415V41.673H69.4183V43.6773H71.7125V44.2024H69.4183V46.1028H72.1294V46.6279H68.8887V41.1479Z" fill="white"/>
<path d="M73.4533 45.0526C73.4533 45.3442 73.5705 45.6057 73.806 45.8358C74.0415 46.066 74.3435 46.1822 74.712 46.1822C75.0973 46.1822 75.4072 46.0939 75.6427 45.9151C75.8782 45.7375 76.0202 45.5263 76.0675 45.2828C76.116 44.97 76.0394 44.7186 75.8388 44.5275C75.6382 44.3365 75.3644 44.2013 75.0162 44.122L74.2703 43.9544C73.4038 43.7633 72.9711 43.3053 72.9711 42.578C72.9711 42.1489 73.1446 41.7914 73.4928 41.5076C73.841 41.2239 74.2444 41.082 74.7041 41.082C75.201 41.082 75.6146 41.2261 75.9436 41.5155C76.2726 41.8048 76.4371 42.1825 76.4371 42.6483H75.9075C75.9075 42.3355 75.7937 42.0841 75.5661 41.8931C75.3385 41.702 75.0512 41.6071 74.7041 41.6071C74.3886 41.6071 74.1091 41.6987 73.8657 41.8819C73.6224 42.0651 73.5007 42.2964 73.5007 42.578C73.5007 43.0237 73.7948 43.312 74.3829 43.4449L75.1368 43.6125C75.6292 43.7242 76.0123 43.9242 76.2884 44.2136C76.5633 44.503 76.6636 44.8906 76.5892 45.3789C76.5194 45.7342 76.3222 46.0447 75.9954 46.3095C75.6686 46.5743 75.2416 46.7073 74.712 46.7073C74.1936 46.7073 73.7655 46.5374 73.4285 46.1978C73.0916 45.8582 72.9226 45.4772 72.9226 45.0526H73.4533Z" fill="white"/>
<path d="M77.2158 41.1479H81.2915V41.673H79.519V46.6279H78.9894V41.673H77.2169V41.1479H77.2158Z" fill="white"/>
<path d="M81.7805 46.6279H81.2114L83.3377 41.1479H83.8989L86.0252 46.6279H85.4561L84.8927 45.1889H82.3337L81.7805 46.6279ZM84.7079 44.6951L83.6172 41.8797L82.5264 44.6951H84.7079ZM83.2487 40.0586C83.1845 40.0586 83.1247 40.0887 83.0684 40.1502C83.0121 40.2116 82.9816 40.2999 82.976 40.4161H82.567C82.5828 40.1189 82.6582 39.9022 82.7912 39.7636C82.9253 39.6262 83.0774 39.5569 83.2487 39.5569C83.3772 39.5569 83.5135 39.6128 83.6577 39.7245C83.802 39.8362 83.909 39.8921 83.9789 39.8921C84.0431 39.8921 84.1028 39.8653 84.1592 39.8128C84.2155 39.7603 84.2459 39.6754 84.2516 39.558H84.6606C84.6448 39.8552 84.5704 40.0686 84.4397 40.1982C84.309 40.3278 84.1547 40.3926 83.9789 40.3926C83.8504 40.3926 83.7141 40.3368 83.5698 40.225C83.4245 40.1133 83.3174 40.0586 83.2487 40.0586Z" fill="white"/>
<path d="M86.4817 43.8996C86.4817 43.1153 86.7487 42.4495 87.284 41.9031C87.8192 41.3568 88.4761 41.0842 89.257 41.0842C90.0379 41.0842 90.6971 41.3568 91.2346 41.9031C91.7721 42.4495 92.0402 43.1153 92.0402 43.8996C92.0402 44.6795 91.7721 45.342 91.2346 45.8883C90.6971 46.4347 90.0379 46.7073 89.257 46.7073C88.4761 46.7073 87.8181 46.4347 87.284 45.8883C86.7487 45.342 86.4817 44.6795 86.4817 43.8996ZM87.6603 42.2774C87.2276 42.7232 87.0102 43.2639 87.0102 43.8996C87.0102 44.5353 87.2254 45.0761 87.6558 45.5185C88.0863 45.9609 88.6192 46.1833 89.2559 46.1833C89.8925 46.1833 90.4267 45.9621 90.8605 45.5185C91.2932 45.0761 91.5106 44.5365 91.5106 43.8996C91.5106 43.2628 91.2943 42.7221 90.8605 42.2774C90.4278 41.8316 89.8925 41.6093 89.2559 41.6093C88.626 41.6093 88.0942 41.8316 87.6603 42.2774Z" fill="white"/>
<path d="M95.9388 41.1479V46.6279H95.4092V41.1479H95.9388Z" fill="white"/>
<path d="M100.535 45.4191L102.629 41.1479H103.158L103.832 46.6279H103.31L102.749 42.0864L100.8 46.0313H100.27L98.3128 42.0864L97.7517 46.6279H97.23L97.9038 41.1479H98.4334L100.535 45.4191Z" fill="white"/>
<path d="M104.755 43.8996C104.755 43.1153 105.022 42.4495 105.557 41.9031C106.093 41.3568 106.75 41.0842 107.53 41.0842C108.311 41.0842 108.971 41.3568 109.508 41.9031C110.046 42.4495 110.314 43.1153 110.314 43.8996C110.314 44.6795 110.046 45.342 109.508 45.8883C108.971 46.4347 108.311 46.7073 107.53 46.7073C106.75 46.7073 106.092 46.4347 105.557 45.8883C105.022 45.342 104.755 44.6795 104.755 43.8996ZM105.935 42.2774C105.502 42.7232 105.285 43.2639 105.285 43.8996C105.285 44.5353 105.5 45.0761 105.93 45.5185C106.361 45.9609 106.894 46.1833 107.53 46.1833C108.167 46.1833 108.701 45.9621 109.135 45.5185C109.568 45.0761 109.785 44.5365 109.785 43.8996C109.785 43.2628 109.569 42.7221 109.135 42.2774C108.702 41.8316 108.167 41.6093 107.53 41.6093C106.899 41.6093 106.368 41.8316 105.935 42.2774Z" fill="white"/>
<path d="M115 42.5076C115 43.1444 114.776 43.5444 114.326 43.7086C114.599 43.7566 114.829 43.9209 115.016 44.2013C115.203 44.4828 115.296 44.7789 115.296 45.0917C115.296 45.5208 115.158 45.885 114.88 46.181C114.601 46.4771 114.225 46.6268 113.748 46.6268H111.55V41.1468H113.563C114.007 41.1468 114.358 41.2686 114.615 41.5121C114.872 41.7579 115 42.0886 115 42.5076ZM112.087 43.4784H113.628C113.9 43.4784 114.109 43.3846 114.253 43.1958C114.397 43.0081 114.469 42.7779 114.469 42.5076C114.469 42.2372 114.383 42.0294 114.209 41.883C114.036 41.7378 113.801 41.6641 113.507 41.6641H112.087V43.4784ZM113.708 43.9711H112.087V46.1028H113.74C114.046 46.1028 114.292 46.0034 114.483 45.8045C114.672 45.6057 114.768 45.3688 114.768 45.0929C114.768 44.8225 114.668 44.5678 114.467 44.3298C114.265 44.0907 114.013 43.9711 113.708 43.9711Z" fill="white"/>
<path d="M117.061 41.1479V46.6279H116.531V41.1479H117.061Z" fill="white"/>
<path d="M118.666 41.1479H119.195V46.1028H121.538V46.6279H118.666V41.1479Z" fill="white"/>
<path d="M123.102 41.1479V46.6279H122.572V41.1479H123.102Z" fill="white"/>
<path d="M124.625 46.6279H124.056L126.182 41.1479H126.744L128.87 46.6279H128.301L127.74 45.1878H125.181L124.625 46.6279ZM127.554 44.6951L126.463 41.8797L125.372 44.6951H127.554ZM127.385 39.5569L126.711 40.6228H126.166L126.727 39.5569H127.385Z" fill="white"/>
<path d="M131.942 44.4884L133.466 46.6279H132.816L131.291 44.4884H130.361V46.6279H129.823V41.1479H131.877C132.401 41.1479 132.788 41.3099 133.037 41.6328C133.286 41.9568 133.41 42.3545 133.41 42.826C133.41 43.2874 133.29 43.6762 133.053 43.9913C132.815 44.3063 132.444 44.4728 131.942 44.4884ZM131.877 41.673H130.361V43.9633H131.837C132.201 43.9633 132.466 43.855 132.631 43.6371C132.797 43.4192 132.88 43.1489 132.88 42.826C132.88 42.5031 132.799 42.2294 132.636 42.007C132.472 41.7836 132.22 41.673 131.877 41.673Z" fill="white"/>
<path d="M135.231 41.1479V46.6279H134.701V41.1479H135.231Z" fill="white"/>
<path d="M136.755 46.6279H136.186L138.313 41.1479H138.874L141 46.6279H140.431L139.87 45.1878H137.311L136.755 46.6279ZM139.683 44.6951L138.592 41.8797L137.501 44.6951H139.683Z" fill="white"/>
<defs>
<linearGradient id="paint0_linear_346_8842" x1="38.7959" y1="34.8106" x2="38.7959" y2="12.5649" gradientUnits="userSpaceOnUse">
<stop stop-color="#223395"/>
<stop offset="1" stop-color="#78A1FF"/>
</linearGradient>
<linearGradient id="paint1_linear_346_8842" x1="28.0972" y1="38.3122" x2="28.0972" y2="0.00025576" gradientUnits="userSpaceOnUse">
<stop stop-color="#223395"/>
<stop offset="1" stop-color="#78A1FF"/>
</linearGradient>
<linearGradient id="paint2_linear_346_8842" x1="17.3984" y1="41.9169" x2="17.3984" y2="15.8606" gradientUnits="userSpaceOnUse">
<stop stop-color="#223395"/>
<stop offset="1" stop-color="#78A1FF"/>
</linearGradient>
</defs>
</svg>
