<svg width="176" height="220" viewBox="0 0 176 220" fill="none" xmlns="http://www.w3.org/2000/svg">
<path d="M43.4526 123.817V164.799C43.4526 164.799 67.805 175.788 71.6653 175.491V114.906L43.4526 123.817Z" fill="white"/>
<path d="M74.0422 113.72V176.085C74.0422 176.085 95.4256 178.757 101.958 175.788V104.514L74.0422 113.72Z" fill="white"/>
<path d="M104.632 103.622V175.491C104.632 175.491 124.53 170.739 132.547 164.205V94.4163L104.632 103.622Z" fill="white"/>
<path d="M88 179.5C66.5434 179.5 46.3715 171.16 31.1981 156.016C16.0246 140.872 7.66797 120.735 7.66797 99.3165C7.66797 73.0874 20.5608 48.4693 42.1576 33.4632L44.1097 32.1074L46.8213 36.0096L44.8692 37.3654C24.5508 51.4843 12.4196 74.6419 12.4196 99.3165C12.4196 140.91 46.3254 174.748 88 174.748C129.675 174.748 163.58 140.91 163.58 99.3165C163.58 87.177 160.781 75.5877 155.259 64.8709L154.171 62.7597L158.396 60.5837L159.484 62.6949C165.357 74.0917 168.334 86.4133 168.334 99.3165C168.334 120.735 159.977 140.872 144.804 156.016C129.629 171.16 109.457 179.5 88 179.5Z" fill="white"/>
<path d="M88.0201 162.127L88 161.83H88.0201V162.127Z" fill="#0B8B00"/>
<path d="M104.483 36.9509V101.097L132.696 91.8887V47.6405L104.483 36.9509Z" fill="url(#paint0_linear_346_11614)"/>
<path d="M73.8936 12.3015L87.8513 0.718506L102.106 12.3015V101.691L73.8936 111.194V12.3015Z" fill="url(#paint1_linear_346_11614)"/>
<path d="M43.3042 57.1439L71.5169 46.4543V112.086L43.3042 121.589" fill="url(#paint2_linear_346_11614)"/>
<path d="M10.503 201.967H0.828125V187.35H10.3105V190.447H4.3704V193.246H9.58862V196.28H4.3704V198.869H10.5009V201.967H10.503Z" fill="white"/>
<path d="M23.6134 191.276C23.6134 191.828 23.4502 192.393 23.1258 192.972C22.7994 193.552 22.2764 193.947 21.5566 194.161C22.4751 194.303 23.1761 194.719 23.6573 195.412C24.1385 196.105 24.3791 196.847 24.3791 197.64C24.3791 198.843 23.99 199.864 23.2116 200.706C22.4333 201.547 21.2177 201.967 19.5627 201.967H13.156V187.35H19.1379C20.4958 187.35 21.5817 187.71 22.3935 188.432C23.2074 189.154 23.6134 190.102 23.6134 191.276ZM16.7192 192.993H18.6295C18.9977 192.993 19.2948 192.885 19.5208 192.665C19.7468 192.445 19.8598 192.152 19.8598 191.784C19.8598 190.893 19.4643 190.447 18.6713 190.447H16.7192V192.993ZM18.9663 195.9H16.7171V198.871H18.9873C19.5103 198.871 19.9142 198.722 20.1966 198.425C20.4791 198.128 20.6214 197.774 20.6214 197.364C20.6214 196.981 20.4833 196.642 20.2071 196.345C19.933 196.048 19.5187 195.9 18.9663 195.9Z" fill="white"/>
<path d="M36.4915 201.967H26.8167V187.35H36.299V190.447H30.3589V193.246H35.5771V196.28H30.3589V198.869H36.4894V201.967H36.4915Z" fill="white"/>
<path d="M42.6849 201.967H39.1426V187.35H45.1894C46.8025 187.35 48.0391 187.832 48.9011 188.794C49.7631 189.757 50.1962 190.901 50.1962 192.232C50.1962 193.334 49.895 194.322 49.2945 195.19C48.694 196.061 47.8277 196.636 46.6958 196.918L50.259 201.967H46.1434L43.0029 197.088H42.6849V201.967ZM45.0199 190.447H42.6869V194.033H45.0199C45.5576 194.033 45.9572 193.857 46.2188 193.504C46.4803 193.15 46.6121 192.725 46.6121 192.232C46.6121 191.736 46.4803 191.315 46.2188 190.97C45.9551 190.621 45.5555 190.447 45.0199 190.447Z" fill="white"/>
<path d="M65.8738 196.238L69.9266 187.35H72.9186L74.7012 201.967H71.0523L70.1609 194.096L67.2129 200.27H64.5389L61.5678 194.096L60.6556 201.967H57.0066L58.8102 187.35H61.7582L65.8738 196.238Z" fill="white"/>
<path d="M86.1754 201.967L84.9451 198.615H80.342L79.1118 201.967H75.3142L80.7019 187.35H84.5622L89.929 201.967H86.1754ZM82.6122 190.744L81.2961 195.561H84.0329L82.6122 190.744Z" fill="white"/>
<path d="M94.8731 201.967H91.3308V187.35H97.3776C98.9908 187.35 100.227 187.832 101.089 188.794C101.951 189.757 102.384 190.901 102.384 192.232C102.384 193.334 102.083 194.322 101.483 195.19C100.88 196.061 100.016 196.636 98.884 196.918L102.449 201.967H98.3338L95.1932 197.088H94.8752V201.967H94.8731ZM97.2081 190.447H94.8752V194.033H97.2081C97.7458 194.033 98.1455 193.857 98.407 193.504C98.6685 193.15 98.8004 192.725 98.8004 192.232C98.8004 191.736 98.6685 191.315 98.407 190.97C98.1434 190.621 97.7437 190.447 97.2081 190.447Z" fill="white"/>
<path d="M114.88 196.77L117.786 198.806C117.106 199.837 116.219 200.655 115.123 201.256C114.026 201.856 112.842 202.158 111.57 202.158C109.519 202.158 107.766 201.425 106.308 199.963C104.851 198.498 104.123 196.734 104.123 194.669C104.123 192.589 104.847 190.819 106.297 189.355C107.747 187.89 109.505 187.16 111.57 187.16C112.857 187.16 114.049 187.461 115.143 188.062C116.24 188.662 117.127 189.48 117.807 190.512L114.859 192.569C114.52 192.004 114.055 191.554 113.47 191.221C112.882 190.888 112.25 190.723 111.57 190.723C110.494 190.723 109.582 191.108 108.833 191.88C108.084 192.65 107.71 193.581 107.71 194.669C107.71 195.759 108.084 196.684 108.833 197.448C109.582 198.211 110.494 198.592 111.57 198.592C112.262 198.592 112.898 198.429 113.48 198.105C114.06 197.78 114.526 197.335 114.88 196.77Z" fill="white"/>
<path d="M127.946 193.121V187.35H131.553V201.967H127.946V196.282H123.492V201.967H119.949V187.35H123.492V193.121H127.946Z" fill="white"/>
<path d="M144.494 201.967H134.82V187.35H144.302V190.447H138.362V193.246H143.58V196.28H138.362V198.869H144.492V201.967H144.494Z" fill="white"/>
<path d="M149.861 190.447H146.084V187.35H157.18V190.447H153.405V201.967H149.863V190.447H149.861Z" fill="white"/>
<path d="M162.103 190.447H158.327V187.35H169.422V190.447H165.646V201.967H162.103V190.447Z" fill="white"/>
<path d="M171.627 201.967V187.35H175.17V201.967H171.627Z" fill="white"/>
<path d="M21.3057 214.404H25.4024C25.4024 216.111 24.9819 217.402 24.1429 218.277C23.3038 219.151 22.1343 219.586 20.6341 219.586C19.1841 219.586 17.9622 219.076 16.9704 218.053C15.9766 217.03 15.4807 215.789 15.4807 214.329C15.4807 212.86 15.9766 211.613 16.9704 210.59C17.9643 209.566 19.1841 209.056 20.6341 209.056C21.8643 209.056 22.9586 209.453 23.9106 210.249L23.2097 210.949C22.4648 210.345 21.6049 210.041 20.632 210.041C19.4603 210.041 18.4727 210.458 17.6672 211.293C16.8637 212.127 16.4599 213.14 16.4599 214.331C16.4599 215.521 16.8595 216.534 17.6588 217.362C18.4581 218.191 19.4477 218.607 20.6299 218.607C21.7325 218.607 22.6029 218.316 23.2432 217.735C23.8834 217.153 24.2328 216.352 24.2935 215.329H21.2994V214.404H21.3057Z" fill="white"/>
<path d="M27.4277 209.175H33.282V210.158H28.4111V213.912H32.6711V214.895H28.4111V218.454H33.4452V219.438H27.4277V209.175Z" fill="white"/>
<path d="M35.9037 216.488C35.9037 217.034 36.1213 217.524 36.5586 217.955C36.9959 218.386 37.5566 218.603 38.2408 218.603C38.9564 218.603 39.5318 218.438 39.969 218.103C40.4063 217.77 40.67 217.375 40.7578 216.919C40.8478 216.333 40.7055 215.862 40.3331 215.504C39.9607 215.147 39.4522 214.893 38.8057 214.745L37.4206 214.431C35.8116 214.073 35.0082 213.215 35.0082 211.853C35.0082 211.05 35.3304 210.38 35.9769 209.849C36.6234 209.317 37.3725 209.052 38.2262 209.052C39.1489 209.052 39.9167 209.322 40.5277 209.864C41.1386 210.405 41.4441 211.113 41.4441 211.985H40.4607C40.4607 211.399 40.2494 210.929 39.8268 210.571C39.4041 210.213 38.8706 210.035 38.2262 210.035C37.6403 210.035 37.1214 210.207 36.6695 210.55C36.2175 210.893 35.9916 211.326 35.9916 211.853C35.9916 212.688 36.5377 213.228 37.6298 213.477L39.0296 213.791C39.9439 214 40.6553 214.375 41.1679 214.917C41.6785 215.458 41.8647 216.184 41.7266 217.099C41.5969 217.764 41.2307 218.346 40.6239 218.842C40.0172 219.338 39.2242 219.587 38.2408 219.587C37.2783 219.587 36.4833 219.269 35.8577 218.632C35.2321 217.996 34.9182 217.283 34.9182 216.488H35.9037Z" fill="white"/>
<path d="M42.8899 209.175H50.4578V210.158H47.1666V219.438H46.1832V210.158H42.8899V209.175Z" fill="white"/>
<path d="M51.3637 219.438H50.3071L54.2553 209.175H55.2973L59.2455 219.438H58.1888L57.1469 216.741H52.3952L51.3637 219.438ZM56.8017 215.818L54.7763 210.546L52.7509 215.818H56.8017ZM54.09 207.133C53.9708 207.133 53.8599 207.19 53.7552 207.305C53.6506 207.42 53.5941 207.585 53.5837 207.803H52.8242C52.8535 207.246 52.9936 206.84 53.2405 206.581C53.4895 206.323 53.772 206.194 54.09 206.194C54.3285 206.194 54.5817 206.298 54.8495 206.507C55.1173 206.717 55.3161 206.821 55.4458 206.821C55.5651 206.821 55.676 206.771 55.7806 206.673C55.8852 206.574 55.9417 206.415 55.9522 206.196H56.7117C56.6824 206.752 56.5443 207.152 56.3016 207.395C56.0589 207.637 55.7722 207.759 55.4458 207.759C55.2073 207.759 54.9541 207.654 54.6863 207.445C54.4185 207.238 54.2197 207.133 54.09 207.133Z" fill="white"/>
<path d="M60.0928 214.329C60.0928 212.86 60.5886 211.613 61.5825 210.59C62.5763 209.566 63.7962 209.056 65.2461 209.056C66.6961 209.056 67.9201 209.566 68.9181 210.59C69.9162 211.613 70.4141 212.86 70.4141 214.329C70.4141 215.789 69.9162 217.03 68.9181 218.053C67.9201 219.076 66.6961 219.586 65.2461 219.586C63.7962 219.586 62.5742 219.076 61.5825 218.053C60.5907 217.03 60.0928 215.789 60.0928 214.329ZM62.2834 211.291C61.48 212.125 61.0762 213.138 61.0762 214.329C61.0762 215.519 61.4758 216.532 62.275 217.36C63.0743 218.189 64.064 218.605 65.2461 218.605C66.4283 218.605 67.42 218.191 68.2256 217.36C69.029 216.532 69.4328 215.521 69.4328 214.329C69.4328 213.136 69.0311 212.123 68.2256 211.291C67.4221 210.456 66.4283 210.039 65.2461 210.039C64.0744 210.039 63.0869 210.456 62.2834 211.291Z" fill="white"/>
<path d="M77.6558 209.175V219.438H76.6724V209.175H77.6558Z" fill="white"/>
<path d="M86.1902 217.174L90.0777 209.175H91.0611L92.3123 219.438H91.3436L90.3016 210.933L86.6819 218.321H85.6985L82.0642 210.933L81.0222 219.438H80.0535L81.3047 209.175H82.2881L86.1902 217.174Z" fill="white"/>
<path d="M94.0259 214.329C94.0259 212.86 94.5218 211.613 95.5156 210.59C96.5094 209.566 97.7293 209.056 99.1792 209.056C100.629 209.056 101.853 209.566 102.851 210.59C103.849 211.613 104.347 212.86 104.347 214.329C104.347 215.789 103.849 217.03 102.851 218.053C101.853 219.076 100.629 219.586 99.1792 219.586C97.7293 219.586 96.5074 219.076 95.5156 218.053C94.5218 217.03 94.0259 215.789 94.0259 214.329ZM96.2144 211.291C95.411 212.125 95.0072 213.138 95.0072 214.329C95.0072 215.519 95.4068 216.532 96.2061 217.36C97.0053 218.189 97.995 218.605 99.1771 218.605C100.359 218.605 101.351 218.191 102.157 217.36C102.96 216.532 103.364 215.521 103.364 214.329C103.364 213.136 102.962 212.123 102.157 211.291C101.353 210.456 100.359 210.039 99.1771 210.039C98.0075 210.039 97.02 210.456 96.2144 211.291Z" fill="white"/>
<path d="M113.047 211.722C113.047 212.914 112.631 213.663 111.796 213.971C112.302 214.061 112.729 214.368 113.076 214.893C113.424 215.421 113.597 215.975 113.597 216.561C113.597 217.364 113.34 218.047 112.823 218.601C112.306 219.155 111.608 219.436 110.723 219.436H106.643V209.173H110.382C111.206 209.173 111.857 209.401 112.334 209.857C112.809 210.318 113.047 210.937 113.047 211.722ZM107.641 213.54H110.501C111.007 213.54 111.394 213.364 111.662 213.01C111.93 212.659 112.064 212.228 112.064 211.722C112.064 211.215 111.903 210.826 111.58 210.552C111.258 210.28 110.823 210.142 110.277 210.142H107.641V213.54ZM110.649 214.462H107.641V218.455H110.71C111.277 218.455 111.735 218.268 112.089 217.896C112.44 217.523 112.618 217.08 112.618 216.563C112.618 216.057 112.432 215.58 112.06 215.134C111.685 214.686 111.216 214.462 110.649 214.462Z" fill="white"/>
<path d="M116.876 209.175V219.438H115.893V209.175H116.876Z" fill="white"/>
<path d="M119.855 209.175H120.839V218.454H125.189V219.438H119.855V209.175Z" fill="white"/>
<path d="M128.093 209.175V219.438H127.11V209.175H128.093Z" fill="white"/>
<path d="M130.922 219.438H129.865L133.813 209.175H134.855L138.803 219.438H137.747L136.705 216.741H131.953L130.922 219.438ZM136.36 215.818L134.334 210.545L132.309 215.818H136.36ZM136.046 206.196L134.794 208.192H133.782L134.824 206.196H136.046Z" fill="white"/>
<path d="M144.507 215.431L147.338 219.438H146.131L143.3 215.431H141.572V219.438H140.573V209.175H144.388C145.361 209.175 146.078 209.478 146.541 210.083C147.003 210.69 147.233 211.435 147.233 212.318C147.233 213.182 147.012 213.91 146.57 214.5C146.129 215.09 145.44 215.402 144.507 215.431ZM144.388 210.158H141.572V214.448H144.312C144.988 214.448 145.48 214.245 145.788 213.837C146.095 213.429 146.25 212.922 146.25 212.318C146.25 211.713 146.099 211.2 145.796 210.784C145.492 210.366 145.024 210.158 144.388 210.158Z" fill="white"/>
<path d="M150.614 209.175V219.438H149.631V209.175H150.614Z" fill="white"/>
<path d="M153.443 219.438H152.387L156.335 209.175H157.377L161.325 219.438H160.268L159.226 216.741H154.473L153.443 219.438ZM158.881 215.818L156.856 210.546L154.831 215.818H158.881Z" fill="white"/>
<defs>
<linearGradient id="paint0_linear_346_11614" x1="118.589" y1="101.098" x2="118.589" y2="36.9502" gradientUnits="userSpaceOnUse">
<stop stop-color="#223395"/>
<stop offset="1" stop-color="#78A1FF"/>
</linearGradient>
<linearGradient id="paint1_linear_346_11614" x1="87.9999" y1="111.195" x2="87.9999" y2="0.71894" gradientUnits="userSpaceOnUse">
<stop stop-color="#223395"/>
<stop offset="1" stop-color="#78A1FF"/>
</linearGradient>
<linearGradient id="paint2_linear_346_11614" x1="57.4113" y1="121.589" x2="57.4113" y2="46.4537" gradientUnits="userSpaceOnUse">
<stop stop-color="#223395"/>
<stop offset="1" stop-color="#78A1FF"/>
</linearGradient>
</defs>
</svg>
